<?xml version="1.0" standalone="no"?>
<!DOCTYPE svg PUBLIC "-//W3C//DTD SVG 20010904//EN"
 "http://www.w3.org/TR/2001/REC-SVG-20010904/DTD/svg10.dtd">
<svg version="1.0" xmlns="http://www.w3.org/2000/svg"
 width="96.000000pt" height="96.000000pt" viewBox="0 0 96.000000 96.000000"
 preserveAspectRatio="xMidYMid meet">

<g transform="translate(0.000000,96.000000) scale(0.100000,-0.100000)"
fill="#000000" stroke="none">
<path d="M304 446 c-3 -8 -4 -25 -2 -38 2 -19 9 -23 38 -23 33 0 35 2 35 34 0
19 -5 36 -11 38 -7 2 -11 -4 -10 -14 0 -10 -6 -18 -14 -18 -8 0 -14 8 -14 18
2 21 -14 23 -22 3z"/>
<path d="M584 446 c-3 -8 -4 -25 -2 -38 2 -19 9 -23 38 -23 33 0 35 2 35 34 0
19 -5 36 -11 38 -7 2 -11 -4 -10 -14 0 -10 -6 -18 -14 -18 -8 0 -14 8 -14 18
2 21 -14 23 -22 3z"/>
<path d="M403 304 c-9 -23 39 -64 76 -64 48 0 102 56 72 74 -5 4 -23 -2 -39
-11 -27 -15 -33 -16 -58 -3 -16 8 -32 16 -36 18 -5 2 -11 -4 -15 -14z"/>
</g>
</svg>
