<svg xmlns="http://www.w3.org/2000/svg" width="96" height="96" viewBox="0 0 96 96" version="1.1">
	<path d="M 61.500 1.133 C 57.650 1.618, 54.003 2.197, 53.395 2.420 C 52.787 2.644, 51.305 6.803, 50.102 11.663 C 48.899 16.523, 47.679 21.287, 47.390 22.250 C 47.011 23.512, 47.428 24, 48.886 24 C 51.001 24, 51.630 22.482, 54.115 11.377 C 55.421 5.541, 55.107 5.720, 66.250 4.490 C 71.042 3.962, 72 3.535, 72 1.928 C 72 -0.197, 72.050 -0.193, 61.500 1.133 M 22.554 38.750 C 22.832 40.263, 24.581 52.207, 26.442 65.293 C 28.303 78.378, 30.370 89.741, 31.035 90.543 C 32.746 92.603, 63.186 92.686, 64.889 90.634 C 65.512 89.883, 67.583 78.295, 69.490 64.884 C 71.397 51.473, 73.130 39.487, 73.340 38.250 L 73.723 36 47.886 36 L 22.050 36 22.554 38.750 M 32.446 51.087 C 31.416 52.755, 33.733 54.667, 35.113 53.287 C 36.267 52.133, 35.545 50, 34 50 C 33.515 50, 32.816 50.489, 32.446 51.087 M 60.446 51.087 C 59.416 52.755, 61.733 54.667, 63.113 53.287 C 64.267 52.133, 63.545 50, 62 50 C 61.515 50, 60.816 50.489, 60.446 51.087" stroke="none" fill="black" fill-rule="evenodd"/>
</svg>